# xmcd
#
# Track frame offsets:
#   150
#   20133
#   32409
#   46243
#   76147
#   96860
#   132121
#   151283
#   171798
#
# Disc length: 2571 seconds
#
# Revision: 0
# Processed by: cddbd v1.5.2PL0 Copyright (c) Steve Scherf et al.
# Submitted via: Media_Universe 3.0
#
DISCID=620a0909
DTITLE=Blood, Sweat and Tears  - 3
DYEAR=1900
DGENRE=Jazz
TTITLE0=01-Hi-De-Ho
TTITLE1=02-The Battle
TTITLE2=03-Lucreitia Mac Evil
TTITLE3=04-Lucretia's Reprise - 05-Fire and Rain
TTITLE4=06-Lonesome Suzie
TTITLE5=07-Symphony for the DevilSypathy for the Devil
TTITLE6=08-He's a Runner
TTITLE7=09-Somethin' Comin' On
TTITLE8=10-40,000 Headmen
EXTD=
EXTT0=
EXTT1=
EXTT2=
EXTT3=
EXTT4=
EXTT5=
EXTT6=
EXTT7=
EXTT8=
PLAYORDER=
